# xmcd
#
# Track frame offsets: 
#        150
#        19045
#        42547
#        59955
#        77047
#        101532
#        127633
#        148209
#        163138
#        178053
#        198679
#        213471
#        232435
#        254394
#
# Disc length: 3647 seconds
#
# Revision: 0
# Processed by: cddbd v1.5.2PL0 Copyright (c) Steve Scherf et al.
# Submitted via: ExactAudioCopyFreeDBPlugin 1.0
#
DISCID=da0e3d0e
DTITLE=Banjaxeld - Feels Good To Feel Good
DYEAR=2013
DGENRE=Blues
TTITLE0=Lay Me Down
TTITLE1=16,000 Feet Of Groove
TTITLE2=No Fear
TTITLE3=Summer's End Blues
TTITLE4=Will I Be
TTITLE5=Kickback
TTITLE6=Just My Point Of View
TTITLE7=Broken
TTITLE8=Be-E
TTITLE9=No Time
TTITLE10=For The Road
TTITLE11=Rhythm Of Life (Groove In B)
TTITLE12=Rolling Home
TTITLE13=Hoochie Coochie Man
EXTD=
EXTT0=
EXTT1=
EXTT2=
EXTT3=
EXTT4=
EXTT5=
EXTT6=
EXTT7=
EXTT8=
EXTT9=
EXTT10=
EXTT11=
EXTT12=
EXTT13=
PLAYORDER=
